#!OML:ASF E:\emotionWalksFemale\Project 1\Capture day 1\Session 1\Female1.ASF
:FULLY-SPECIFIED
:DEGREES
668
root 8.99296 15.0023 11.2236 -178.497 -4.90633 -174.573
lowerback 2.81202 3.38011 2.08251
upperback -0.828538 4.58559 0.155922
thorax -2.27357 2.25757 -1.2135
lowerneck 1.54275 -7.0973 -11.9413
upperneck -8.21716 -9.4301 16.0218
head -1.26322 -5.05117 6.87993
rclavicle -2.06736e-014 -8.74653e-015
rhumerus -19.8325 6.32488 -83.6094
rradius 42.0853
rwrist 13.8374
rhand -6.84441 -50.8031
rfingers 7.12502
rthumb 19.0205 -79.8931
lclavicle -2.06736e-014 -8.74653e-015
lhumerus -43.176 4.81474 81.2074
lradius 33.6205
lwrist -16.9467
lhand 0.00875265 -38.4891
lfingers 7.12502
lthumb 25.5988 -10.1896
rfemur 19.6777 8.3014 39.1858
rtibia -1.27222e-014
rfoot -14.3453 -25.7927
rtoes 4.56234
lfemur -39.0065 -30.419 -4.9492
ltibia 24.1873
lfoot -22.7202 23.2935
ltoes -3.08399
669
root 8.98801 14.983 11.1055 -178.45 -4.57209 -174.756
lowerback 2.66133 3.39661 1.60234
upperback -0.640501 4.58543 0.149261
thorax -2.03244 2.26861 -0.937405
lowerneck 1.52629 -7.01438 -11.5947
upperneck -8.92972 -9.28449 15.7528
head -1.52045 -5.00159 6.76972
rclavicle -4.77083e-014 -1.03368e-014
rhumerus -19.6603 6.38958 -84.0253
rradius 42.0379
rwrist 13.4097
rhand -7.23349 -50.8301
rfingers 7.12502
rthumb 18.6462 -79.9564
lclavicle -4.77083e-014 -1.03368e-014
lhumerus -42.6892 6.14603 80.4992
lradius 32.6546
lwrist -18.6092
lhand 0.612503 -38.4715
lfingers 7.12502
lthumb 26.1769 -10.2563
rfemur 20.1619 7.98173 38.8957
rtibia -2.8625e-014
rfoot -14.1003 -25.357
rtoes 2.13949
lfemur -38.2132 -29.4012 -5.91441
ltibia 24.2989
lfoot -21.8425 22.8506
ltoes -3.63711
670
root 8.96795 14.9728 10.9625 -178.551 -3.90743 -174.951
lowerback 2.74924 3.44844 1.5095
upperback -0.583514 4.64901 -0.0999787
thorax -2.00811 2.30149 -1.14632
lowerneck 1.18658 -6.90296 -11.0341
upperneck -9.12495 -9.10852 15.5576
head -1.58343 -4.92909 6.61525
rclavicle -2.44008e-014 1.51076e-014
rhumerus -19.8184 6.27044 -84.882
rradius 41.9681
rwrist 13.0869
rhand -7.04031 -51.5103
rfingers 7.12502
rthumb 18.8321 -80.6187
lclavicle -2.44008e-014 1.51076e-014
lhumerus -42.577 7.2746 79.4186
lradius 31.8622
lwrist -20.2005
lhand 0.877044 -38.5446
lfingers 7.12502
lthumb 26.4302 -10.3673
rfemur 20.9029 7.94125 38.5636
rtibia 4.77083e-014
rfoot -13.4973 -24.983
rtoes -0.350014
lfemur -37.2939 -29.455 -6.42617
ltibia 24.3996
lfoot -21.6073 23.4498
ltoes -3.00886
671
root 8.95338 14.9691 10.835 -178.762 -3.60156 -175.112
lowerback 3.10258 3.42581 1.30481
upperback -0.536484 4.61382 -0.219935
thorax -2.16491 2.28424 -1.17633
lowerneck 0.983565 -6.84464 -10.5757
upperneck -9.35243 -9.01444 15.2443
head -1.66866 -4.89074 6.44593
rclavicle -1.71203e-014 2.3059e-014
rhumerus -20.0584 6.12415 -85.5445
rradius 41.8081
rwrist 12.7214
rhand -6.97223 -51.6104
rfingers 7.12502
rthumb 18.8975 -80.7124
lclavicle -1.71203e-014 2.3059e-014
lhumerus -42.6168 8.20543 78.5883
lradius 31.3461
lwrist -21.443
lhand 0.972392 -38.3579
lfingers 7.12502
lthumb 26.5214 -10.1943
rfemur 21.6547 7.52497 38.2935
rtibia 5.40694e-014
rfoot -13.3264 -24.5724
rtoes 0.442233
lfemur -36.6042 -29.9363 -6.73425
ltibia 24.5281
lfoot -21.0703 24.1597
ltoes -3.18207
672
root 8.93965 14.9762 10.7022 -178.937 -3.0815 -175.289
lowerback 3.19321 3.47451 1.04385
upperback -0.442476 4.66833 -0.21755
thorax -2.13842 2.31504 -1.03454
lowerneck 1.0941 -6.77943 -10.5479
upperneck -9.7503 -8.92417 14.9851
head -1.83115 -4.85019 6.38342
rclavicle -1.30452e-014 6.36111e-015
rhumerus -20.354 6.1049 -86.0201
rradius 41.4597
rwrist 12.6032
rhand -7.24916 -50.8137
rfingers 7.12502
rthumb 18.6312 -79.9415
lclavicle -1.30452e-014 6.36111e-015
lhumerus -42.6639 9.53283 77.865
lradius 30.8191
lwrist -22.7626
lhand 1.18567 -37.9323
lfingers 7.12502
lthumb 26.7255 -9.79967
rfemur 22.4046 7.33152 37.9855
rtibia -4.77083e-014
rfoot -13.0637 -24.0491
rtoes 1.00566
lfemur -36.1474 -30.9204 -6.67853
ltibia 24.7133
lfoot -21.0088 25.6093
ltoes -1.75017
673
root 8.92384 14.9884 10.5676 -179.12 -2.4872 -175.407
lowerback 3.11045 3.30122 0.63731
upperback -0.0564831 4.41741 -0.109072
thorax -1.74064 2.19729 -0.666798
lowerneck 0.363174 -6.48307 -10.4537
upperneck -10.0461 -8.49305 14.8063
head -1.866 -4.63285 6.30293
rclavicle -1.32192e-014 -6.36111e-015
rhumerus -19.913 6.97075 -86.7029
rradius 40.8124
rwrist 12.3694
rhand -7.46661 -50.3942
rfingers 7.12502
rthumb 18.422 -79.5419
lclavicle -1.32192e-014 -6.36111e-015
lhumerus -42.3571 11.9713 76.851
lradius 30.3473
lwrist -24.2171
lhand 1.66892 -37.0541
lfingers 7.12502
lthumb 27.1879 -8.99292
rfemur 23.1519 7.21504 37.7268
rtibia -7.63333e-014
rfoot -12.5092 -23.4876
rtoes 0.644598
lfemur -35.6953 -31.9699 -6.54403
ltibia 24.914
lfoot -21.5701 26.7092
ltoes 3.56124
674
root 8.9047 15.007 10.4277 -179.3 -1.81035 -175.662
lowerback 3.45181 3.30436 0.40747
upperback -0.0774892 4.41126 -0.224104
thorax -1.96155 2.19393 -0.679731
lowerneck -0.00872129 -6.25481 -10.5099
upperneck -9.95959 -8.17421 14.8477
head -1.81503 -4.46721 6.3143
rclavicle 5.8393e-015 -1.03368e-014
rhumerus -20.2798 7.2469 -87.4359
rradius 40.2197
rwrist 12.3496
rhand -7.26688 -50.0336
rfingers 7.12502
rthumb 18.6141 -79.163
lclavicle 5.8393e-015 -1.03368e-014
lhumerus -42.6839 13.6589 75.8141
lradius 30.1059
lwrist -25.3566
lhand 1.87107 -36.2311
lfingers 7.12502
lthumb 27.3813 -8.20035
rfemur 23.9313 7.18351 37.3151
rtibia -2.22639e-014
rfoot -11.7796 -23.0019
rtoes 1.10469
lfemur -34.9791 -32.6393 -6.87986
ltibia 25.1226
lfoot -21.3909 27.4188
ltoes 10.0388
675
root 8.88487 15.0317 10.285 -179.474 -1.05293 -176.136
lowerback 3.67364 3.32726 -0.146752
upperback 0.117994 4.4065 -0.494631
thorax -1.9054 2.19308 -0.655477
lowerneck -1.06094 -6.09322 -9.67262
upperneck -9.76976 -7.94192 14.3796
head -1.67541 -4.34507 5.9906
rclavicle -1.54058e-014 -7.15625e-015
rhumerus -20.1698 7.0591 -88.3307
rradius 39.4006
rwrist 12.9581
rhand -6.617 -49.4659
rfingers 7.12502
rthumb 19.2391 -78.5342
lclavicle -1.54058e-014 -7.15625e-015
lhumerus -42.4783 15.3341 74.6603
lradius 29.7798
lwrist -26.1131
lhand 2.05931 -35.9057
lfingers 7.12502
lthumb 27.5613 -7.90356
rfemur 24.7366 7.24354 36.6524
rtibia 0
rfoot -10.651 -22.5333
rtoes 0.641309
lfemur -33.9914 -32.8218 -7.80076
ltibia 25.3143
lfoot -20.2273 28.3403
ltoes 15.3678
676
root 8.86428 15.0646 10.1428 -179.606 -0.487921 -176.658
lowerback 3.59252 3.52251 -0.457744
upperback 0.112483 4.64338 -0.807394
thorax -1.86247 2.31092 -0.809431
lowerneck -0.42457 -6.07662 -9.49748
upperneck -10.3332 -7.93609 14.3633
head -1.95436 -4.38274 6.00152
rclavicle 6.85807e-015 -1.19271e-014
rhumerus -20.6624 6.20143 -88.9347
rradius 38.393
rwrist 13.5488
rhand -6.41025 -48.7646
rfingers 7.12502
rthumb 19.4379 -77.813
lclavicle 6.85807e-015 -1.19271e-014
lhumerus -42.6355 16.2244 73.8146
lradius 29.5698
lwrist -26.4792
lhand 2.37359 -35.9524
lfingers 7.12502
lthumb 27.8618 -7.99856
rfemur 25.4197 7.15245 35.89
rtibia 2.54444e-014
rfoot -9.37462 -21.9718
rtoes -1.15156
lfemur -33.0625 -32.9184 -8.84229
ltibia 25.471
lfoot -19.3425 29.3311
ltoes 19.3338
677
root 8.84536 15.1012 9.99823 -179.704 -0.0541126 -177.148
lowerback 3.47127 3.65584 -0.790618
upperback 0.173963 4.79562 -1.11013
thorax -1.73167 2.38521 -0.930638
lowerneck -0.252184 -6.03297 -9.51147
upperneck -10.6679 -7.87763 14.6182
head -2.07377 -4.38547 6.10283
rclavicle -7.70291e-015 2.3059e-014
rhumerus -20.9732 5.25248 -89.5414
rradius 37.1303
rwrist 14.1971
rhand -6.50047 -47.7562
rfingers 7.12502
rthumb 19.3512 -76.8133
lclavicle -7.70291e-015 2.3059e-014
lhumerus -42.7982 16.8703 73.0396
lradius 29.6484
lwrist -26.5609
lhand 2.1835 -36.2218
lfingers 7.12502
lthumb 27.6801 -8.2387
rfemur 26.012 6.96127 35.1211
rtibia 0
rfoot -8.08964 -21.3312
rtoes -2.69595
lfemur -32.1951 -33.0904 -9.81487
ltibia 25.5442
lfoot -18.8303 30.179
ltoes 21.8931
678
root 8.82497 15.1331 9.85435 -179.835 0.283267 -177.499
lowerback 3.49867 3.67066 -0.962737
upperback 0.171191 4.86767 -1.33101
thorax -1.74397 2.44802 -1.06723
lowerneck -0.0439224 -5.93914 -9.59099
upperneck -10.8916 -7.75323 14.7714
head -2.17771 -4.34249 6.18234
rclavicle 2.09221e-014 0
rhumerus -21.437 4.08683 -90.0401
rradius 35.7865
rwrist 15.5279
rhand -6.12818 -46.5867
rfingers 7.12502
rthumb 19.7091 -75.6076
lclavicle 2.09221e-014 0
lhumerus -43.0368 17.4579 72.3033
lradius 29.6745
lwrist -26.5546
lhand 1.75723 -36.1782
lfingers 7.12502
lthumb 27.2724 -8.13032
rfemur 26.6388 6.68322 34.4678
rtibia -3.18055e-015
rfoot -6.92175 -20.6991
rtoes -3.13894
lfemur -31.2168 -33.0743 -10.7833
ltibia 25.5287
lfoot -18.1143 30.6601
ltoes 22.9397
679
root 8.79951 15.1645 9.71278 -179.852 0.473159 -177.75
lowerback 3.53447 3.64065 -0.959953
upperback 0.0669828 4.82627 -1.51073
thorax -1.8557 2.42818 -1.25737
lowerneck 0.209024 -5.85581 -9.56249
upperneck -11.0327 -7.64964 14.6605
head -2.28101 -4.29641 6.16025
rclavicle 2.40529e-014 2.38542e-015
rhumerus -21.9365 2.84355 -90.4403
rradius 34.3008
rwrist 17.4918
rhand -5.91092 -45.1738
rfingers 7.12502
rthumb 19.918 -74.1731
lclavicle 2.40529e-014 2.38542e-015
lhumerus -43.2489 18.1949 71.674
lradius 29.681
lwrist -26.2509
lhand 1.51345 -35.9089
lfingers 7.12502
lthumb 27.0392 -7.82461
rfemur 27.0936 6.31205 33.848
rtibia 6.36111e-015
rfoot -5.64251 -19.9939
rtoes -3.38523
lfemur -30.3519 -32.6366 -11.7406
ltibia 25.4745
lfoot -17.1393 30.6147
ltoes 22.4582
680
root 8.77555 15.1978 9.57073 -179.722 0.578109 -177.988
lowerback 3.40657 3.5866 -1.00914
upperback -0.049309 4.75396 -1.69665
thorax -1.8928 2.39367 -1.41242
lowerneck 0.221164 -5.79318 -9.40171
upperneck -11.0485 -7.57122 14.4679
head -2.31387 -4.25592 6.0764
rclavicle -1.55052e-014 2.38542e-015
rhumerus -22.4231 1.30358 -90.7202
rradius 32.9208
rwrist 19.8542
rhand -5.09455 -44.5489
rfingers 7.12502
rthumb 20.7026 -73.4647
lclavicle -1.55052e-014 2.38542e-015
lhumerus -43.3976 18.7291 71.1808
lradius 29.917
lwrist -25.518
lhand 1.57677 -35.7119
lfingers 7.12502
lthumb 27.0998 -7.63699
rfemur 27.3375 5.89919 33.2112
rtibia 8.5875e-014
rfoot -3.80064 -19.1844
rtoes -4.15551
lfemur -29.6815 -32.0633 -12.6018
ltibia 25.4023
lfoot -16.1539 30.1
ltoes 22.2918
681
root 8.7521 15.2297 9.42842 -179.529 0.533755 -178.114
lowerback 3.17512 3.48719 -0.975536
upperback -0.111373 4.62746 -1.83466
thorax -1.81495 2.33141 -1.55217
lowerneck -0.088679 -5.71486 -9.35444
upperneck -10.8371 -7.46231 14.4044
head -2.21862 -4.18822 6.03103
rclavicle -1.81888e-014 -1.59028e-014
rhumerus -22.9577 -0.487711 -90.8275
rradius 31.8598
rwrist 22.2969
rhand -3.3734 -44.4206
rfingers 7.12502
rthumb 22.3556 -73.1471
lclavicle -1.81888e-014 -1.59028e-014
lhumerus -43.3472 19.1821 70.8048
lradius 30.1245
lwrist -24.726
lhand 1.56533 -35.6595
lfingers 7.12502
lthumb 27.0888 -7.5829
rfemur 27.4951 5.35315 32.6846
rtibia -2.22639e-014
rfoot -1.91767 -18.425
rtoes -3.82729
lfemur -29.1122 -31.4006 -13.3407
ltibia 25.3354
lfoot -14.8677 29.2152
ltoes 22.0042
